<?xml version="1.0" encoding="utf-8"?>
<!-- Generator: Adobe Illustrator 16.0.0, SVG Export Plug-In . SVG Version: 6.00 Build 0)  -->
<!DOCTYPE svg PUBLIC "-//W3C//DTD SVG 1.1//EN" "http://www.w3.org/Graphics/SVG/1.1/DTD/svg11.dtd">
<svg version="1.1" xmlns="http://www.w3.org/2000/svg" xmlns:xlink="http://www.w3.org/1999/xlink" x="0px" y="0px" width="960px"
	 height="960px" viewBox="0 0 960 960" enable-background="new 0 0 960 960" xml:space="preserve">
<g id="Layer_1">
	<linearGradient id="SVGID_1_" gradientUnits="userSpaceOnUse" x1="484.5" y1="971.5" x2="484.5" y2="0.2487">
		<stop  offset="0" style="stop-color:#CCE0F4"/>
		<stop  offset="0.0392" style="stop-color:#C3DCF2"/>
		<stop  offset="0.1043" style="stop-color:#A9D2EE"/>
		<stop  offset="0.1875" style="stop-color:#80C2E7"/>
		<stop  offset="0.2843" style="stop-color:#47ACDE"/>
		<stop  offset="0.347" style="stop-color:#1E9CD7"/>
		<stop  offset="0.7523" style="stop-color:#0075BE"/>
		<stop  offset="0.8653" style="stop-color:#005B97"/>
		<stop  offset="1" style="stop-color:#001E7A"/>
	</linearGradient>
	<rect x="-23.5" y="-12.5" fill="url(#SVGID_1_)" stroke="#000000" stroke-miterlimit="10" width="1016" height="984"/>
</g>
<g id="Layer_2">
	<path display="none" fill="none" stroke="#000000" stroke-miterlimit="10" d="M422.58,785.742
		c31.195-38.074,50.334-75.859,94.29-101.842c42.738-25.263,91.353-43.224,139.741-20.547c23.914,11.208,36.266,36.38,49.975,57.446
		c15.848,24.349,36.152,42.946,59.543,60.104c38.938,28.561,96.638,41.682,137.356,10.343
		c35.492-27.316,66.834-86.569,72.015-131.311"/>
	<linearGradient id="SVGID_2_" gradientUnits="userSpaceOnUse" x1="466" y1="977" x2="466" y2="707">
		<stop  offset="0" style="stop-color:#002A07"/>
		<stop  offset="0.2578" style="stop-color:#005B01"/>
		<stop  offset="0.6022" style="stop-color:#2E8E15"/>
		<stop  offset="0.7071" style="stop-color:#349716"/>
		<stop  offset="0.8333" style="stop-color:#40A919"/>
		<stop  offset="1" style="stop-color:#72CC1D"/>
	</linearGradient>
	<path fill="url(#SVGID_2_)" d="M1046,983H-62h-52V744l0.661-0.258C-50.949,705.668-12.422,667.883,75.49,641.9
		c85.477-25.263,182.831-43.224,279.607-20.547c47.829,11.208,84.47,33.543,100.013,57.446
		c24.89,38.278,85.075,62.489,108.089,69.101c67.031,19.258,144.799,27.153,192.785,24.1c110-7,103.508-76,289.508-133.645L1044,638
		v345"/>
</g>
</svg>
